# xmcd
#
# Track frame offsets:
#	150
#	12865
#	34257
#	48058
#	60001
#	80605
#	101796
#	122284
#	132575
#	147134
#	160462
#	174106
#	187711
#	199275
#	214205
#	229015
#	257385
#	267840
#	280933
#	294147
#	310450
#
# Disc length: 4280 seconds
#
# Revision: 1
# Processed by: cddbd v1.5.2PL0 Copyright (c) Steve Scherf et al.
# Submitted via: audiograbber 1.83.01
#
DISCID=1b10b615
DTITLE=Wim Pols and Country Trail Band - Through it all
DYEAR=2014
DGENRE=Country
TTITLE0=Church in the wildwood
TTITLE1=There is a river
TTITLE2=Give them all to Jesus
TTITLE3=Moving up to Gloryland
TTITLE4=I know who holds tomorrow
TTITLE5=His eye is on the sparrow
TTITLE6=Sitting at the feet of Jesus
TTITLE7=I go to the rock
TTITLE8=There's just something about that Name
TTITLE9=Just over in the Gloryland
TTITLE10=Go rest high on that mountain
TTITLE11=Through it all
TTITLE12=This old house
TTITLE13=What a day that will be
TTITLE14=Blessed Jesus hold my hand
TTITLE15=Sweet Holy Spirit
TTITLE16=Let's all go down to the River
TTITLE17=He looked beyond my faults
TTITLE18=The angels rejoiced
TTITLE19=Oh, how I love Jesus
TTITLE20=Jesus is coming soon
EXTD=
EXTT0=
EXTT1=
EXTT2=
EXTT3=
EXTT4=
EXTT5=
EXTT6=
EXTT7=
EXTT8=
EXTT9=
EXTT10=
EXTT11=
EXTT12=
EXTT13=
EXTT14=
EXTT15=
EXTT16=
EXTT17=
EXTT18=
EXTT19=
EXTT20=
PLAYORDER=
